# xmcd CD database file
# Copyright (C) 1997 Ti Kan
# 
# Track frame offsets:
#     150
#     21825
#     42288
#     57538
#     70550
#     80038
#     93625
#     109500
#     129163
#     150313
#     160913
#     174150
# 
# Disc length: 2489 seconds
# 
# Revision: 1
# Processed by: cddbd v1.4b41PL1 Copyright (c) Steve Scherf et al.
# Submitted via: DiscPlay 4.0.4
# 
DISCID=8c09b70c
DTITLE=Willie Nelson - The Best Of Willie Nelson Disc 2
DYEAR=1900
DGENRE=
TTITLE0=Poncho and Lefty
TTITLE1=Angel Flying Too Close To The Ground
TTITLE2=Living In The Promiseland
TTITLE3=Remember Me (When The Candle Lights Are Gleaming)
TTITLE4=If You've Got The Money, I've Got The Time
TTITLE5=Heartbreak Hotel
TTITLE6=Mammas, Don't Let Your Babies Grow Up To Be Cowboys
TTITLE7=Last Thing I Needed, First Thing This Morning
TTITLE8=Uncloudy Day
TTITLE9=Blue Eyes Crying In The Rain
TTITLE10=Good Hearted Woman
TTITLE11=Forgiving You Was Easy
EXTD=
EXTT0=with Merle Haggard\n
EXTT1=
EXTT2=
EXTT3=
EXTT4=
EXTT5=with Leon Russell\n
EXTT6=
EXTT7=
EXTT8=
EXTT9=
EXTT10=
EXTT11=
PLAYORDER=
